<?xml version="1.0" encoding="utf-8"?>
<!-- Generator: Adobe Illustrator 26.0.3, SVG Export Plug-In . SVG Version: 6.00 Build 0)  -->
<svg version="1.0" id="katman_1" xmlns="http://www.w3.org/2000/svg" xmlns:xlink="http://www.w3.org/1999/xlink" x="0px" y="0px"
	 viewBox="0 0 600 450" style="enable-background:new 0 0 600 450;" xml:space="preserve">
<style type="text/css">
	.st0{fill:#F18618;}
	.st1{fill-rule:evenodd;clip-rule:evenodd;fill:#2E53A0;}
</style>
<path class="st0" d="M80,213h44.3v12.4l-16.7,1.3c-26.9,2-35.3,9.1-35.3,29.1v4c0,14.6,10.2,23.4,26,23.4c12.4,0,19.6-2.9,28.4-11.9
	h1.5v9.5h17.8v-87.3H80V213z M124.3,255.1c-5.5,5.5-13.7,9.1-20.5,9.1c-7.3,0-10.4-2.7-10.2-8.8c0.2-8.4,3.3-10.4,17.4-11.7
	l13.4-1.3V255.1z"/>
<path class="st1" d="M183.2,193.6h34.2v17.8h18.7v69.5h-21.8v-67.7h-31.1v67.7h-21.8V167.4h21.8V193.6z M501.6,228.8l-13.2-1.3
	c-7.3-0.7-9.1-2.6-9.1-8.4c0-6.6,2.6-8.2,12.8-8.2c9.1,0,11.7,1.5,13,7.7h20.5c-0.5-20.9-7-26.2-32.4-26.2
	c-27.8,0-34.8,5.3-34.8,26.7c0,19.6,5.1,24.9,25.8,26.9L495,247c9.7,0.9,12.1,2.7,12.1,8.6c0,7.1-2.9,9-14.8,9
	c-10.4,0-13.2-1.6-13.7-8.4h-20.7c0.5,21.6,7.1,27.1,33.5,27.1c29.3,0,36.6-5.9,36.6-29.7C528,235.9,522.7,230.8,501.6,228.8z
	 M389.5,230.4c0-28.2-9.7-38.1-37.5-38.1c-27.5,0-38.2,12.8-38.2,44.7c0,34.8,9.5,46.3,40.3,46.3c22.1,0,31.5-6.8,34.6-25.8h-21
	c-2.4,5.9-4.9,7.2-13.9,7.2c-13.5,0-17-3.8-17.8-20.1h52.2C389,239.8,389.4,235.1,389.5,230.4z M336.1,227.3
	c0.2-12.3,5.1-16.8,16.8-16.8c11.2,0,15.7,4.6,16.1,16.8H336.1z M402.2,197.5v83.5H424v-68.6h26.2v-18.7H424v-2.4
	c0.2-5.1,1.5-6.6,5.7-6.6h23.8v-17.2h-25.6C410.4,167.4,402.2,172.8,402.2,197.5z M273.8,280.9H252v-87.3h54.2v20.5h-32.4V280.9z"/>
</svg>
