<svg width="117" height="60" viewBox="0 0 117 60" fill="none" xmlns="http://www.w3.org/2000/svg">
<path d="M50.5 25L58.6452 31.109C59.6915 31.8935 61.1655 31.7393 62.0267 30.7553L78 12.5" stroke="#FFF7EC" stroke-width="5" stroke-linecap="round"/>
<path d="M80.5 30C80.5 34.7013 79.0275 39.2843 76.289 43.1058C73.5507 46.9273 69.684 49.7948 65.2325 51.306C60.7808 52.817 55.9675 52.8958 51.4686 51.5313C46.9698 50.1665 43.0115 47.4268 40.1496 43.6973C37.2876 39.9675 35.6659 35.435 35.5121 30.7363C35.3582 26.0375 36.6801 21.4086 39.2919 17.4997C41.9038 13.5908 45.6745 10.5981 50.0744 8.94213C54.4743 7.28611 59.2825 7.04991 63.8235 8.26668" stroke="#FFF7EC" stroke-width="5" stroke-linecap="round"/>
<path d="M10.8473 2.71998C10.9092 2.72057 10.9712 2.73609 11.0258 2.77866C11.1357 2.86408 11.2057 3.02133 11.2043 3.18938C11.2028 3.37712 11.162 7.81097 10.2003 9.9955C9.62563 11.3135 8.98453 11.9611 8.23706 11.9611C7.89581 11.9611 7.53439 11.8376 7.14388 11.5503C6.67912 11.2077 6.17528 10.7442 6.00608 9.93682C5.85902 9.23274 6.00229 8.42047 6.42997 7.4432C7.3909 5.25492 10.5353 2.87817 10.6688 2.77866C10.7238 2.73736 10.7855 2.71941 10.8473 2.71998ZM2.23571 6.18172C2.29693 6.18939 2.36209 6.22091 2.41418 6.26974C2.53126 6.37862 5.27074 8.94642 6.09531 11.2276C6.8185 13.2282 6.57095 14.5936 5.31446 15.3935C4.9932 15.5953 4.59716 15.8042 4.17666 15.8042C3.41848 15.8042 2.81183 15.1489 2.32494 13.8093C1.50251 11.5281 1.84216 6.7924 1.85644 6.59244C1.86869 6.42534 1.94157 6.28147 2.05722 6.21106C2.11576 6.17616 2.17449 6.17443 2.23571 6.18172ZM9.57565 12.1077C11.4511 12.1077 13.6973 12.8963 13.7922 12.9292C13.9171 12.9724 14.0062 13.0885 14.0376 13.2519C14.0697 13.4161 14.0419 13.6039 13.9484 13.7213C13.8441 13.8536 11.3631 16.9518 9.4641 17.623C9.04504 17.7714 8.65827 17.8577 8.3263 17.8577C7.32967 17.8577 6.71196 17.213 6.42996 15.8922C6.29002 15.2285 6.18205 14.4469 6.4969 13.7212C6.77745 13.0744 7.3386 12.6154 8.19245 12.3131C8.56939 12.1798 9.03022 12.1077 9.57565 12.1077ZM0.294758 14.9827C0.355453 14.9693 0.435574 14.983 0.495541 15.0119C0.629766 15.0776 3.7808 16.6362 5.02444 18.5616C6.11673 20.2524 6.14725 21.6516 5.09138 22.8448C4.71943 23.2644 4.2677 23.6956 3.68586 23.6956C3.08974 23.6956 2.49862 23.267 1.90107 22.3461C0.656717 20.4216 0.0304356 15.738 0.00473404 15.5399C-0.0174332 15.3747 0.0400848 15.2069 0.13858 15.0999C0.188543 15.0464 0.234091 14.9964 0.294758 14.9827ZM12.8106 17.7991C12.9198 17.8217 13.0594 17.8854 13.1229 18.0337C13.1865 18.1821 13.1684 18.3879 13.1006 18.5325C13.0249 18.6958 11.215 22.546 9.50872 23.8424C8.87476 24.3249 8.34468 24.5465 7.85779 24.5465C6.86045 24.5465 6.38195 23.534 6.22917 23.197C5.96218 22.6046 5.7123 21.8912 5.87221 21.0848C6.01498 20.3638 6.46208 19.7372 7.23311 19.1485C8.94437 17.8512 12.6535 17.8 12.8106 17.7991ZM13.3683 21.7302C13.43 21.7421 13.4965 21.7647 13.5468 21.8182C13.6482 21.9252 13.7021 22.0902 13.6807 22.2583C13.6564 22.447 13.0692 26.9118 11.8512 28.947C11.1909 30.0492 10.5368 30.5899 9.86568 30.5899C9.44875 30.5899 9.04396 30.3782 8.61633 29.9445C8.20012 29.522 7.75784 28.982 7.67931 28.1549C7.60934 27.4152 7.84209 26.6097 8.39323 25.6907C9.61473 23.661 13.0449 21.8365 13.1898 21.7595C13.2498 21.7277 13.3067 21.718 13.3683 21.7302ZM0.986362 24.6345C1.12986 24.6364 4.51685 24.6986 6.18456 25.9547C7.65236 27.0587 8.03002 28.3798 7.34467 29.9738C7.14476 30.4376 6.66234 31.4993 5.67143 31.4993C5.23594 31.4993 4.75441 31.3001 4.19898 30.8832C2.52771 29.6243 0.72739 25.5142 0.651714 25.3386C0.58746 25.1931 0.609074 25.0138 0.673882 24.8692C0.738836 24.7247 0.835726 24.6364 0.986362 24.6345ZM14.6846 26.16C14.7468 26.1531 14.8049 26.1823 14.8631 26.2187C14.9794 26.2919 15.0553 26.4311 15.0639 26.6001C15.0739 26.7916 15.2946 31.3252 14.4615 33.6702C13.9289 35.1788 13.2509 35.8998 12.4313 35.8998C12.1357 35.8998 11.8427 35.813 11.4943 35.6065C11.0131 35.3192 10.4871 34.9235 10.2673 34.1396C10.0709 33.4393 10.1602 32.5838 10.535 31.5287C11.3631 29.1836 14.379 26.3663 14.5061 26.2481C14.559 26.1992 14.6224 26.1669 14.6846 26.16ZM10.2673 34.1396C10.443 34.6111 10.4884 35.1953 10.4011 35.8705C10.3076 36.5774 10.0898 38.2468 8.43785 38.2468C8.21224 38.2468 7.94989 38.1923 7.67931 38.1294C5.78815 37.6835 3.02209 34.6221 2.90501 34.4916C2.80791 34.3828 2.76991 34.1875 2.79347 34.0223C2.8171 33.8561 2.91752 33.7247 3.03888 33.6702C3.1417 33.6233 5.57507 32.5261 7.45623 32.5261C7.75536 32.5261 8.04039 32.5579 8.28169 32.6141C9.32088 32.8582 9.97443 33.3538 10.2673 34.1396ZM17.161 29.5631C17.2881 29.5942 17.388 29.6959 17.4287 29.8565C17.4751 30.0376 18.571 34.3504 18.2319 36.8973C17.9734 38.8415 17.2811 39.8309 16.2017 39.8309C16.0453 39.8309 15.8931 39.8072 15.7332 39.7723C15.2134 39.6559 14.6269 39.427 14.2607 38.7455C13.9352 38.1381 13.8618 37.3101 14.0153 36.1638C14.3573 33.6141 16.7034 29.8675 16.804 29.7098C16.8876 29.5802 17.0318 29.5312 17.161 29.5631ZM20.7529 32.9075C20.8814 32.9217 20.9886 33.0175 21.0429 33.1715C21.1029 33.347 22.5164 37.4849 22.3815 40.0656C22.2616 42.2211 21.5933 43.2633 20.329 43.2633C20.264 43.2633 20.1967 43.2679 20.1282 43.2633C20.0696 43.2583 20.0096 43.2419 19.9497 43.2342C22.8334 44.7991 14.3064 44.4607 20.7529 44.1434L21.0429 44.4023C21.0429 44.4023 20.7529 44.1434 19.392 43.6447C19.4538 43.7977 19.498 43.9631 19.5481 44.1434C19.7273 44.7893 19.8849 45.5605 19.6151 46.3144C19.3731 46.9903 18.8519 47.5061 18.0088 47.8985C17.4626 48.152 16.7109 48.2799 15.7778 48.2799C14.1101 48.2799 12.4135 47.8852 12.3421 47.8692C12.215 47.8381 12.1165 47.708 12.0744 47.5465C12.0322 47.385 12.0549 47.2039 12.1413 47.0771C12.2391 46.9344 14.565 43.5696 16.4248 42.706C17.119 42.3835 17.6905 42.296 18.1649 42.4126C18.0169 42.2464 17.8599 42.0889 17.7187 41.9139C17.7187 41.9139 18.0853 42.1617 18.6334 42.5006C18.6182 42.4795 18.6037 42.4642 18.5888 42.4419C18.2169 41.8805 18.0568 41.049 18.1203 39.8896C18.2581 37.3108 20.3311 33.2837 20.4182 33.1128C20.4903 32.973 20.6244 32.8971 20.7529 32.9075ZM13.056 38.1001C14.0523 38.2417 14.6052 38.998 14.7738 40.359C14.8531 41.0415 14.8816 41.8303 14.5061 42.5006C14.1692 43.1005 13.58 43.4729 12.699 43.6447C12.5077 43.6823 12.313 43.7034 12.0967 43.7034C10.117 43.7034 7.28612 42.2398 7.16619 42.1779C7.04552 42.1159 6.96021 41.9939 6.94309 41.8258C6.92588 41.6578 6.97342 41.4881 7.07694 41.3858C7.19331 41.2713 9.96633 38.5408 11.9182 38.1587C12.3481 38.0736 12.7239 38.0529 13.056 38.1001Z" fill="#FFF7EC"/>
<path d="M106.336 1.71998C106.275 1.72057 106.214 1.73609 106.161 1.77866C106.053 1.86408 105.984 2.02133 105.985 2.18938C105.987 2.37712 106.027 6.81097 106.971 8.9955C107.536 10.3135 108.165 10.9611 108.899 10.9611C109.234 10.9611 109.589 10.8376 109.973 10.5503C110.429 10.2077 110.924 9.74417 111.09 8.93682C111.235 8.23274 111.094 7.42047 110.674 6.4432C109.73 4.25492 106.642 1.87817 106.511 1.77866C106.457 1.73736 106.397 1.71941 106.336 1.71998ZM114.793 5.18172C114.733 5.18939 114.669 5.22091 114.618 5.26974C114.503 5.37862 111.812 7.94642 111.003 10.2276C110.292 12.2282 110.535 13.5936 111.769 14.3935C112.085 14.5953 112.474 14.8042 112.887 14.8042C113.631 14.8042 114.227 14.1489 114.705 12.8093C115.513 10.5281 115.179 5.7924 115.165 5.59244C115.153 5.42534 115.082 5.28147 114.968 5.21106C114.911 5.17616 114.853 5.17443 114.793 5.18172ZM107.585 11.1077C105.743 11.1077 103.537 11.8963 103.444 11.9292C103.321 11.9724 103.234 12.0885 103.203 12.2519C103.171 12.4161 103.199 12.6039 103.291 12.7213C103.393 12.8536 105.829 15.9518 107.694 16.623C108.106 16.7714 108.486 16.8577 108.812 16.8577C109.79 16.8577 110.397 16.213 110.674 14.8922C110.811 14.2285 110.917 13.4469 110.608 12.7212C110.333 12.0744 109.782 11.6154 108.943 11.3131C108.573 11.1798 108.12 11.1077 107.585 11.1077ZM116.699 13.9827C116.639 13.9693 116.561 13.983 116.502 14.0119C116.37 14.0776 113.275 15.6362 112.054 17.5616C110.981 19.2524 110.952 20.6516 111.988 21.8448C112.354 22.2644 112.797 22.6956 113.369 22.6956C113.954 22.6956 114.535 22.267 115.121 21.3461C116.343 19.4216 116.958 14.738 116.984 14.5399C117.005 14.3747 116.949 14.2069 116.852 14.0999C116.803 14.0464 116.758 13.9964 116.699 13.9827ZM104.408 16.7991C104.301 16.8217 104.164 16.8854 104.101 17.0337C104.039 17.1821 104.056 17.3879 104.123 17.5325C104.197 17.6958 105.975 21.546 107.65 22.8424C108.273 23.3249 108.794 23.5465 109.272 23.5465C110.251 23.5465 110.721 22.534 110.871 22.197C111.133 21.6046 111.379 20.8912 111.222 20.0848C111.081 19.3638 110.642 18.7372 109.885 18.1485C108.205 16.8512 104.562 16.8 104.408 16.7991ZM103.86 20.7302C103.8 20.7421 103.734 20.7647 103.685 20.8182C103.585 20.9252 103.532 21.0902 103.553 21.2583C103.577 21.447 104.154 25.9118 105.35 27.947C105.998 29.0492 106.641 29.5899 107.3 29.5899C107.709 29.5899 108.107 29.3782 108.527 28.9445C108.936 28.522 109.37 27.982 109.447 27.1549C109.516 26.4152 109.287 25.6097 108.746 24.6907C107.546 22.661 104.178 20.8365 104.035 20.7595C103.977 20.7277 103.921 20.718 103.86 20.7302ZM116.02 23.6345C115.879 23.6364 112.553 23.6986 110.915 24.9547C109.473 26.0587 109.103 27.3798 109.776 28.9738C109.972 29.4376 110.446 30.4993 111.419 30.4993C111.846 30.4993 112.319 30.3001 112.865 29.8832C114.506 28.6243 116.274 24.5142 116.348 24.3386C116.411 24.1931 116.39 24.0138 116.327 23.8692C116.263 23.7247 116.168 23.6364 116.02 23.6345ZM102.568 25.16C102.506 25.1531 102.449 25.1823 102.392 25.2187C102.278 25.2919 102.203 25.4311 102.195 25.6001C102.185 25.7916 101.968 30.3252 102.787 32.6702C103.31 34.1788 103.975 34.8998 104.78 34.8998C105.071 34.8998 105.358 34.813 105.701 34.6065C106.173 34.3192 106.69 33.9235 106.906 33.1396C107.098 32.4393 107.011 31.5838 106.643 30.5287C105.829 28.1836 102.868 25.3663 102.743 25.2481C102.691 25.1992 102.629 25.1669 102.568 25.16ZM106.906 33.1396C106.733 33.6111 106.688 34.1953 106.774 34.8705C106.866 35.5774 107.08 37.2468 108.702 37.2468C108.924 37.2468 109.181 37.1923 109.447 37.1294C111.304 36.6835 114.021 33.6221 114.136 33.4916C114.231 33.3828 114.268 33.1875 114.245 33.0223C114.222 32.8561 114.123 32.7247 114.004 32.6702C113.903 32.6233 111.513 31.5261 109.666 31.5261C109.372 31.5261 109.092 31.5579 108.855 31.6141C107.835 31.8582 107.193 32.3538 106.906 33.1396ZM100.136 28.5631C100.011 28.5942 99.9127 28.6959 99.8727 28.8565C99.8271 29.0376 98.751 33.3504 99.084 35.8973C99.3378 37.8415 100.018 38.8309 101.078 38.8309C101.231 38.8309 101.381 38.8072 101.538 38.7723C102.048 38.6559 102.624 38.427 102.984 37.7455C103.304 37.1381 103.376 36.3101 103.225 35.1638C102.889 32.6141 100.585 28.8675 100.486 28.7098C100.404 28.5802 100.263 28.5312 100.136 28.5631ZM96.6083 31.9075C96.4821 31.9217 96.3767 32.0175 96.3235 32.1715C96.2646 32.347 94.8764 36.4849 95.0089 39.0656C95.1267 41.2211 95.7829 42.2633 97.0245 42.2633C97.0883 42.2633 97.1544 42.2679 97.2217 42.2633C97.2792 42.2583 97.3382 42.2419 97.397 42.2342C94.5651 43.7991 102.939 43.4607 96.6083 43.1434L96.3235 43.4023C96.3235 43.4023 96.6083 43.1434 97.9447 42.6447C97.884 42.7977 97.8406 42.9631 97.7914 43.1434C97.6154 43.7893 97.4606 44.5605 97.7256 45.3144C97.9633 45.9903 98.4751 46.5061 99.3031 46.8985C99.8394 47.152 100.578 47.2799 101.494 47.2799C103.132 47.2799 104.798 46.8852 104.868 46.8692C104.993 46.8381 105.09 46.708 105.131 46.5465C105.172 46.385 105.15 46.2039 105.065 46.0771C104.969 45.9344 102.685 42.5696 100.859 41.706C100.177 41.3835 99.6157 41.296 99.1497 41.4126C99.2951 41.2464 99.4493 41.0889 99.5879 40.9139C99.5879 40.9139 99.228 41.1617 98.6896 41.5006C98.7046 41.4795 98.7189 41.4642 98.7334 41.4419C99.0987 40.8805 99.2559 40.049 99.1935 38.8896C99.0582 36.3108 97.0224 32.2837 96.9369 32.1128C96.8661 31.973 96.7345 31.8971 96.6083 31.9075ZM104.167 37.1001C103.188 37.2417 102.646 37.998 102.48 39.359C102.402 40.0415 102.374 40.8303 102.743 41.5006C103.074 42.1005 103.652 42.4729 104.517 42.6447C104.705 42.6823 104.897 42.7034 105.109 42.7034C107.053 42.7034 109.833 41.2398 109.951 41.1779C110.069 41.1159 110.153 40.9939 110.17 40.8258C110.187 40.6578 110.14 40.4881 110.039 40.3858C109.924 40.2713 107.201 37.5408 105.284 37.1587C104.862 37.0736 104.493 37.0529 104.167 37.1001Z" fill="#FFF7EC"/>
</svg>
