<svg width="117" height="53" viewBox="0 0 117 53" fill="none" xmlns="http://www.w3.org/2000/svg">
<g id="Google Icon">
<path id="Vector" d="M58.64 0C44.1718 0 32.42 11.7518 32.42 26.22C32.42 40.6882 44.1718 52.44 58.64 52.44C69.9465 52.44 76.8488 47.2388 80.4425 40.7906C84.0362 34.3425 84.4904 26.7677 83.3994 21.5887L83.1856 20.6981H82.295L58.64 20.6625H57.5V32.5256H70.5387C68.5705 37.0856 64.5626 40.2206 58.64 40.2206C50.9005 40.2206 44.6394 33.9595 44.6394 26.22C44.6394 18.4805 50.9005 12.2194 58.64 12.2194C62.1179 12.2194 65.2751 13.5063 67.7244 15.6038L68.5437 16.2806L76.3456 8.47875L77.165 7.62375L76.31 6.84C71.652 2.59617 65.4355 0 58.64 0ZM58.64 2.28C64.4246 2.28 69.6437 4.39523 73.7806 7.80188L68.2944 13.2881C65.5824 11.262 62.2871 9.93937 58.64 9.93937C49.6669 9.93937 42.3594 17.247 42.3594 26.22C42.3594 35.193 49.6669 42.5006 58.64 42.5006C66.1079 42.5006 71.4783 37.9228 73.3887 31.7062L73.8519 30.2456H59.78V22.9425L81.2619 22.9781C82.0189 27.5782 81.5157 34.1822 78.4475 39.6862C75.1878 45.5287 69.2651 50.16 58.64 50.16C45.4008 50.16 34.7 39.4547 34.7 26.22C34.7 12.9853 45.4008 2.28 58.64 2.28Z" fill="#FFF7EC"/>
<path id="Vector_2" d="M10.8473 1.71998C10.9092 1.72057 10.9712 1.73609 11.0258 1.77866C11.1357 1.86408 11.2057 2.02133 11.2043 2.18938C11.2028 2.37712 11.162 6.81097 10.2003 8.9955C9.62563 10.3135 8.98453 10.9611 8.23706 10.9611C7.89581 10.9611 7.53439 10.8376 7.14388 10.5503C6.67912 10.2077 6.17528 9.74417 6.00608 8.93682C5.85902 8.23274 6.00229 7.42047 6.42997 6.4432C7.3909 4.25492 10.5353 1.87817 10.6688 1.77866C10.7238 1.73736 10.7855 1.71941 10.8473 1.71998ZM2.23571 5.18172C2.29693 5.18939 2.36209 5.22091 2.41418 5.26974C2.53126 5.37862 5.27074 7.94642 6.09531 10.2276C6.8185 12.2282 6.57095 13.5936 5.31446 14.3935C4.9932 14.5953 4.59716 14.8042 4.17666 14.8042C3.41848 14.8042 2.81183 14.1489 2.32494 12.8093C1.50251 10.5281 1.84216 5.7924 1.85644 5.59244C1.86869 5.42534 1.94157 5.28147 2.05722 5.21106C2.11576 5.17616 2.17449 5.17443 2.23571 5.18172ZM9.57565 11.1077C11.4511 11.1077 13.6973 11.8963 13.7922 11.9292C13.9171 11.9724 14.0062 12.0885 14.0376 12.2519C14.0697 12.4161 14.0419 12.6039 13.9484 12.7213C13.8441 12.8536 11.3631 15.9518 9.4641 16.623C9.04504 16.7714 8.65827 16.8577 8.3263 16.8577C7.32967 16.8577 6.71196 16.213 6.42996 14.8922C6.29002 14.2285 6.18205 13.4469 6.4969 12.7212C6.77745 12.0744 7.3386 11.6154 8.19245 11.3131C8.56939 11.1798 9.03022 11.1077 9.57565 11.1077ZM0.294758 13.9827C0.355453 13.9693 0.435574 13.983 0.495541 14.0119C0.629766 14.0776 3.7808 15.6362 5.02444 17.5616C6.11673 19.2524 6.14725 20.6516 5.09138 21.8448C4.71943 22.2644 4.2677 22.6956 3.68586 22.6956C3.08974 22.6956 2.49862 22.267 1.90107 21.3461C0.656717 19.4216 0.0304356 14.738 0.00473404 14.5399C-0.0174332 14.3747 0.0400848 14.2069 0.13858 14.0999C0.188543 14.0464 0.234091 13.9964 0.294758 13.9827ZM12.8106 16.7991C12.9198 16.8217 13.0594 16.8854 13.1229 17.0337C13.1865 17.1821 13.1684 17.3879 13.1006 17.5325C13.0249 17.6958 11.215 21.546 9.50872 22.8424C8.87476 23.3249 8.34468 23.5465 7.85779 23.5465C6.86045 23.5465 6.38195 22.534 6.22917 22.197C5.96218 21.6046 5.7123 20.8912 5.87221 20.0848C6.01498 19.3638 6.46208 18.7372 7.23311 18.1485C8.94437 16.8512 12.6535 16.8 12.8106 16.7991ZM13.3683 20.7302C13.43 20.7421 13.4965 20.7647 13.5468 20.8182C13.6482 20.9252 13.7021 21.0902 13.6807 21.2583C13.6564 21.447 13.0692 25.9118 11.8512 27.947C11.1909 29.0492 10.5368 29.5899 9.86568 29.5899C9.44875 29.5899 9.04396 29.3782 8.61633 28.9445C8.20012 28.522 7.75784 27.982 7.67931 27.1549C7.60934 26.4152 7.84209 25.6097 8.39323 24.6907C9.61473 22.661 13.0449 20.8365 13.1898 20.7595C13.2498 20.7277 13.3067 20.718 13.3683 20.7302ZM0.986362 23.6345C1.12986 23.6364 4.51685 23.6986 6.18456 24.9547C7.65236 26.0587 8.03002 27.3798 7.34467 28.9738C7.14476 29.4376 6.66234 30.4993 5.67143 30.4993C5.23594 30.4993 4.75441 30.3001 4.19898 29.8832C2.52771 28.6243 0.72739 24.5142 0.651714 24.3386C0.58746 24.1931 0.609074 24.0138 0.673882 23.8692C0.738836 23.7247 0.835726 23.6364 0.986362 23.6345ZM14.6846 25.16C14.7468 25.1531 14.8049 25.1823 14.8631 25.2187C14.9794 25.2919 15.0553 25.4311 15.0639 25.6001C15.0739 25.7916 15.2946 30.3252 14.4615 32.6702C13.9289 34.1788 13.2509 34.8998 12.4313 34.8998C12.1357 34.8998 11.8427 34.813 11.4943 34.6065C11.0131 34.3192 10.4871 33.9235 10.2673 33.1396C10.0709 32.4393 10.1602 31.5838 10.535 30.5287C11.3631 28.1836 14.379 25.3663 14.5061 25.2481C14.559 25.1992 14.6224 25.1669 14.6846 25.16ZM10.2673 33.1396C10.443 33.6111 10.4884 34.1953 10.4011 34.8705C10.3076 35.5774 10.0898 37.2468 8.43785 37.2468C8.21224 37.2468 7.94989 37.1923 7.67931 37.1294C5.78815 36.6835 3.02209 33.6221 2.90501 33.4916C2.80791 33.3828 2.76991 33.1875 2.79347 33.0223C2.8171 32.8561 2.91752 32.7247 3.03888 32.6702C3.1417 32.6233 5.57507 31.5261 7.45623 31.5261C7.75536 31.5261 8.04039 31.5579 8.28169 31.6141C9.32088 31.8582 9.97443 32.3538 10.2673 33.1396ZM17.161 28.5631C17.2881 28.5942 17.388 28.6959 17.4287 28.8565C17.4751 29.0376 18.571 33.3504 18.2319 35.8973C17.9734 37.8415 17.2811 38.8309 16.2017 38.8309C16.0453 38.8309 15.8931 38.8072 15.7332 38.7723C15.2134 38.6559 14.6269 38.427 14.2607 37.7455C13.9352 37.1381 13.8618 36.3101 14.0153 35.1638C14.3573 32.6141 16.7034 28.8675 16.804 28.7098C16.8876 28.5802 17.0318 28.5312 17.161 28.5631ZM20.7529 31.9075C20.8814 31.9217 20.9886 32.0175 21.0429 32.1715C21.1029 32.347 22.5164 36.4849 22.3815 39.0656C22.2616 41.2211 21.5933 42.2633 20.329 42.2633C20.264 42.2633 20.1967 42.2679 20.1282 42.2633C20.0696 42.2583 20.0096 42.2419 19.9497 42.2342C22.8334 43.7991 14.3064 43.4607 20.7529 43.1434L21.0429 43.4023C21.0429 43.4023 20.7529 43.1434 19.392 42.6447C19.4538 42.7977 19.498 42.9631 19.5481 43.1434C19.7273 43.7893 19.8849 44.5605 19.6151 45.3144C19.3731 45.9903 18.8519 46.5061 18.0088 46.8985C17.4626 47.152 16.7109 47.2799 15.7778 47.2799C14.1101 47.2799 12.4135 46.8852 12.3421 46.8692C12.215 46.8381 12.1165 46.708 12.0744 46.5465C12.0322 46.385 12.0549 46.2039 12.1413 46.0771C12.2391 45.9344 14.565 42.5696 16.4248 41.706C17.119 41.3835 17.6905 41.296 18.1649 41.4126C18.0169 41.2464 17.8599 41.0889 17.7187 40.9139C17.7187 40.9139 18.0853 41.1617 18.6334 41.5006C18.6182 41.4795 18.6037 41.4642 18.5888 41.4419C18.2169 40.8805 18.0568 40.049 18.1203 38.8896C18.2581 36.3108 20.3311 32.2837 20.4182 32.1128C20.4903 31.973 20.6244 31.8971 20.7529 31.9075ZM13.056 37.1001C14.0523 37.2417 14.6052 37.998 14.7738 39.359C14.8531 40.0415 14.8816 40.8303 14.5061 41.5006C14.1692 42.1005 13.58 42.4729 12.699 42.6447C12.5077 42.6823 12.313 42.7034 12.0967 42.7034C10.117 42.7034 7.28612 41.2398 7.16619 41.1779C7.04552 41.1159 6.96021 40.9939 6.94309 40.8258C6.92588 40.6578 6.97342 40.4881 7.07694 40.3858C7.19331 40.2713 9.96633 37.5408 11.9182 37.1587C12.3481 37.0736 12.7239 37.0529 13.056 37.1001Z" fill="#FFF7EC"/>
<path id="Vector_3" d="M106.336 0.719984C106.275 0.720571 106.214 0.736092 106.161 0.778664C106.053 0.864077 105.984 1.02133 105.985 1.18938C105.987 1.37712 106.027 5.81097 106.971 7.9955C107.536 9.31354 108.165 9.96106 108.899 9.96106C109.234 9.96106 109.589 9.8376 109.973 9.55034C110.429 9.2077 110.924 8.74417 111.09 7.93682C111.235 7.23274 111.094 6.42047 110.674 5.4432C109.73 3.25492 106.642 0.878172 106.511 0.778664C106.457 0.737358 106.397 0.719409 106.336 0.719984ZM114.793 4.18172C114.733 4.18939 114.669 4.22091 114.618 4.26974C114.503 4.37862 111.812 6.94642 111.003 9.22764C110.292 11.2282 110.535 12.5936 111.769 13.3935C112.085 13.5953 112.474 13.8042 112.887 13.8042C113.631 13.8042 114.227 13.1489 114.705 11.8093C115.513 9.52805 115.179 4.7924 115.165 4.59244C115.153 4.42534 115.082 4.28147 114.968 4.21106C114.911 4.17616 114.853 4.17443 114.793 4.18172ZM107.585 10.1077C105.743 10.1077 103.537 10.8963 103.444 10.9292C103.321 10.9724 103.234 11.0885 103.203 11.2519C103.171 11.4161 103.199 11.6039 103.291 11.7213C103.393 11.8536 105.829 14.9518 107.694 15.623C108.106 15.7714 108.486 15.8577 108.812 15.8577C109.79 15.8577 110.397 15.213 110.674 13.8922C110.811 13.2285 110.917 12.4469 110.608 11.7212C110.333 11.0744 109.782 10.6154 108.943 10.3131C108.573 10.1798 108.12 10.1077 107.585 10.1077ZM116.699 12.9827C116.639 12.9693 116.561 12.983 116.502 13.0119C116.37 13.0776 113.275 14.6362 112.054 16.5616C110.981 18.2524 110.952 19.6516 111.988 20.8448C112.354 21.2644 112.797 21.6956 113.369 21.6956C113.954 21.6956 114.535 21.267 115.121 20.3461C116.343 18.4216 116.958 13.738 116.984 13.5399C117.005 13.3747 116.949 13.2069 116.852 13.0999C116.803 13.0464 116.758 12.9964 116.699 12.9827ZM104.408 15.7991C104.301 15.8217 104.164 15.8854 104.101 16.0337C104.039 16.1821 104.056 16.3879 104.123 16.5325C104.197 16.6958 105.975 20.546 107.65 21.8424C108.273 22.3249 108.794 22.5465 109.272 22.5465C110.251 22.5465 110.721 21.534 110.871 21.197C111.133 20.6046 111.379 19.8912 111.222 19.0848C111.081 18.3638 110.642 17.7372 109.885 17.1485C108.205 15.8512 104.562 15.8 104.408 15.7991ZM103.86 19.7302C103.8 19.7421 103.734 19.7647 103.685 19.8182C103.585 19.9252 103.532 20.0902 103.553 20.2583C103.577 20.447 104.154 24.9118 105.35 26.947C105.998 28.0492 106.641 28.5899 107.3 28.5899C107.709 28.5899 108.107 28.3782 108.527 27.9445C108.936 27.522 109.37 26.982 109.447 26.1549C109.516 25.4152 109.287 24.6097 108.746 23.6907C107.546 21.661 104.178 19.8365 104.035 19.7595C103.977 19.7277 103.921 19.718 103.86 19.7302ZM116.02 22.6345C115.879 22.6364 112.553 22.6986 110.915 23.9547C109.473 25.0587 109.103 26.3798 109.776 27.9738C109.972 28.4376 110.446 29.4993 111.419 29.4993C111.846 29.4993 112.319 29.3001 112.865 28.8832C114.506 27.6243 116.274 23.5142 116.348 23.3386C116.411 23.1931 116.39 23.0138 116.327 22.8692C116.263 22.7247 116.168 22.6364 116.02 22.6345ZM102.568 24.16C102.506 24.1531 102.449 24.1823 102.392 24.2187C102.278 24.2919 102.203 24.4311 102.195 24.6001C102.185 24.7916 101.968 29.3252 102.787 31.6702C103.31 33.1788 103.975 33.8998 104.78 33.8998C105.071 33.8998 105.358 33.813 105.701 33.6065C106.173 33.3192 106.69 32.9235 106.906 32.1396C107.098 31.4393 107.011 30.5838 106.643 29.5287C105.829 27.1836 102.868 24.3663 102.743 24.2481C102.691 24.1992 102.629 24.1669 102.568 24.16ZM106.906 32.1396C106.733 32.6111 106.688 33.1953 106.774 33.8705C106.866 34.5774 107.08 36.2468 108.702 36.2468C108.924 36.2468 109.181 36.1923 109.447 36.1294C111.304 35.6835 114.021 32.6221 114.136 32.4916C114.231 32.3828 114.268 32.1875 114.245 32.0223C114.222 31.8561 114.123 31.7247 114.004 31.6702C113.903 31.6233 111.513 30.5261 109.666 30.5261C109.372 30.5261 109.092 30.5579 108.855 30.6141C107.835 30.8582 107.193 31.3538 106.906 32.1396ZM100.136 27.5631C100.011 27.5942 99.9127 27.6959 99.8727 27.8565C99.8271 28.0376 98.751 32.3504 99.084 34.8973C99.3378 36.8415 100.018 37.8309 101.078 37.8309C101.231 37.8309 101.381 37.8072 101.538 37.7723C102.048 37.6559 102.624 37.427 102.984 36.7455C103.304 36.1381 103.376 35.3101 103.225 34.1638C102.889 31.6141 100.585 27.8675 100.486 27.7098C100.404 27.5802 100.263 27.5312 100.136 27.5631ZM96.6083 30.9075C96.4821 30.9217 96.3767 31.0175 96.3235 31.1715C96.2646 31.347 94.8764 35.4849 95.0089 38.0656C95.1267 40.2211 95.7829 41.2633 97.0245 41.2633C97.0883 41.2633 97.1544 41.2679 97.2217 41.2633C97.2792 41.2583 97.3382 41.2419 97.397 41.2342C94.5651 42.7991 102.939 42.4607 96.6083 42.1434L96.3235 42.4023C96.3235 42.4023 96.6083 42.1434 97.9447 41.6447C97.884 41.7977 97.8406 41.9631 97.7914 42.1434C97.6154 42.7893 97.4606 43.5605 97.7256 44.3144C97.9633 44.9903 98.4751 45.5061 99.3031 45.8985C99.8394 46.152 100.578 46.2799 101.494 46.2799C103.132 46.2799 104.798 45.8852 104.868 45.8692C104.993 45.8381 105.09 45.708 105.131 45.5465C105.172 45.385 105.15 45.2039 105.065 45.0771C104.969 44.9344 102.685 41.5696 100.859 40.706C100.177 40.3835 99.6157 40.296 99.1497 40.4126C99.2951 40.2464 99.4493 40.0889 99.5879 39.9139C99.5879 39.9139 99.228 40.1617 98.6896 40.5006C98.7046 40.4795 98.7189 40.4642 98.7334 40.4419C99.0987 39.8805 99.2559 39.049 99.1935 37.8896C99.0582 35.3108 97.0224 31.2837 96.9369 31.1128C96.8661 30.973 96.7345 30.8971 96.6083 30.9075ZM104.167 36.1001C103.188 36.2417 102.646 36.998 102.48 38.359C102.402 39.0415 102.374 39.8303 102.743 40.5006C103.074 41.1005 103.652 41.4729 104.517 41.6447C104.705 41.6823 104.897 41.7034 105.109 41.7034C107.053 41.7034 109.833 40.2398 109.951 40.1779C110.069 40.1159 110.153 39.9939 110.17 39.8258C110.187 39.6578 110.14 39.4881 110.039 39.3858C109.924 39.2713 107.201 36.5408 105.284 36.1587C104.862 36.0736 104.493 36.0529 104.167 36.1001Z" fill="#FFF7EC"/>
</g>
</svg>
